<mxfile host="app.diagrams.net" modified="2024-04-28T02:20:17.343Z" agent="Mozilla/5.0 (X11; Linux x86_64) AppleWebKit/537.36 (KHTML, like Gecko) Chrome/124.0.0.0 Safari/537.36" etag="XJdJzgSMgWKUhEvQbeh5" version="24.2.5" type="device">
  <diagram name="Page-1" id="zBg6pfhZeGASbWDPhqJE">
    <mxGraphModel dx="1382" dy="754" grid="1" gridSize="10" guides="1" tooltips="1" connect="1" arrows="1" fold="1" page="1" pageScale="1" pageWidth="850" pageHeight="1100" math="0" shadow="0">
      <root>
        <mxCell id="0" />
        <mxCell id="1" parent="0" />
        <mxCell id="pij2rxlQCV_wu5LtM53G-9" style="rounded=0;orthogonalLoop=1;jettySize=auto;html=1;strokeWidth=4;fillColor=#b0e3e6;strokeColor=#0a2848;" edge="1" parent="1">
          <mxGeometry relative="1" as="geometry">
            <mxPoint x="199.99636363636353" y="397.83608391608385" as="sourcePoint" />
            <mxPoint x="332.7236363636363" y="260.00391608391607" as="targetPoint" />
          </mxGeometry>
        </mxCell>
        <mxCell id="pij2rxlQCV_wu5LtM53G-4" value="Alex&lt;div&gt;Chicago&lt;/div&gt;" style="sketch=0;outlineConnect=0;dashed=0;verticalLabelPosition=bottom;verticalAlign=top;align=center;html=1;fontSize=24;fontStyle=0;aspect=fixed;pointerEvents=1;shape=mxgraph.aws4.user;fillColor=#a94442;strokeColor=#0e8088;" vertex="1" parent="1">
          <mxGeometry x="80" y="390" width="140" height="140" as="geometry" />
        </mxCell>
        <mxCell id="pij2rxlQCV_wu5LtM53G-5" value="Bob&lt;div&gt;Detroit&lt;/div&gt;" style="sketch=0;outlineConnect=0;dashed=0;verticalLabelPosition=bottom;verticalAlign=top;align=center;html=1;fontSize=24;fontStyle=0;aspect=fixed;pointerEvents=1;shape=mxgraph.aws4.user;fillColor=#a94442;strokeColor=#0e8088;" vertex="1" parent="1">
          <mxGeometry x="340" y="120" width="140" height="140" as="geometry" />
        </mxCell>
        <mxCell id="pij2rxlQCV_wu5LtM53G-6" value="Carter&lt;div&gt;Chicago&lt;/div&gt;" style="sketch=0;outlineConnect=0;dashed=0;verticalLabelPosition=bottom;verticalAlign=top;align=center;html=1;fontSize=24;fontStyle=0;aspect=fixed;pointerEvents=1;shape=mxgraph.aws4.user;fillColor=#a94442;strokeColor=#0e8088;" vertex="1" parent="1">
          <mxGeometry x="340" y="640" width="140" height="140" as="geometry" />
        </mxCell>
        <mxCell id="pij2rxlQCV_wu5LtM53G-7" value="David&lt;div&gt;Atlanta&lt;/div&gt;" style="sketch=0;outlineConnect=0;dashed=0;verticalLabelPosition=bottom;verticalAlign=top;align=center;html=1;fontSize=24;fontStyle=0;aspect=fixed;pointerEvents=1;shape=mxgraph.aws4.user;fillColor=#a94442;strokeColor=#0e8088;" vertex="1" parent="1">
          <mxGeometry x="590" y="390" width="140" height="140" as="geometry" />
        </mxCell>
        <mxCell id="pij2rxlQCV_wu5LtM53G-8" value="Ethan&lt;div&gt;Boston&lt;/div&gt;" style="sketch=0;outlineConnect=0;dashed=0;verticalLabelPosition=bottom;verticalAlign=top;align=center;html=1;fontSize=24;fontStyle=0;aspect=fixed;pointerEvents=1;shape=mxgraph.aws4.user;fillColor=#a94442;strokeColor=#0e8088;" vertex="1" parent="1">
          <mxGeometry x="930" y="390" width="140" height="140" as="geometry" />
        </mxCell>
        <mxCell id="pij2rxlQCV_wu5LtM53G-10" style="rounded=0;orthogonalLoop=1;jettySize=auto;html=1;strokeWidth=4;fillColor=#b0e3e6;strokeColor=#0a2848;" edge="1" parent="1">
          <mxGeometry relative="1" as="geometry">
            <mxPoint x="219.99636363636353" y="529.998811188811" as="sourcePoint" />
            <mxPoint x="352.7236363636363" y="657.6211888111886" as="targetPoint" />
          </mxGeometry>
        </mxCell>
        <mxCell id="pij2rxlQCV_wu5LtM53G-11" style="rounded=0;orthogonalLoop=1;jettySize=auto;html=1;strokeWidth=4;fillColor=#b0e3e6;strokeColor=#0a2848;" edge="1" parent="1">
          <mxGeometry relative="1" as="geometry">
            <mxPoint x="490" y="260" as="sourcePoint" />
            <mxPoint x="607.3684210526317" y="390" as="targetPoint" />
          </mxGeometry>
        </mxCell>
        <mxCell id="pij2rxlQCV_wu5LtM53G-12" style="rounded=0;orthogonalLoop=1;jettySize=auto;html=1;strokeWidth=4;fillColor=#b0e3e6;strokeColor=#0a2848;" edge="1" parent="1">
          <mxGeometry relative="1" as="geometry">
            <mxPoint x="470" y="652.62" as="sourcePoint" />
            <mxPoint x="576.3636363636363" y="539.9996791443851" as="targetPoint" />
          </mxGeometry>
        </mxCell>
        <mxCell id="pij2rxlQCV_wu5LtM53G-13" style="rounded=0;orthogonalLoop=1;jettySize=auto;html=1;strokeWidth=4;fillColor=#b0e3e6;strokeColor=#0a2848;" edge="1" parent="1" source="pij2rxlQCV_wu5LtM53G-7" target="pij2rxlQCV_wu5LtM53G-8">
          <mxGeometry relative="1" as="geometry">
            <mxPoint x="254" y="434" as="sourcePoint" />
            <mxPoint x="386" y="296" as="targetPoint" />
          </mxGeometry>
        </mxCell>
      </root>
    </mxGraphModel>
  </diagram>
</mxfile>
